<svg width="50" height="51" viewBox="0 0 50 51" fill="none" xmlns="http://www.w3.org/2000/svg">
<path fill-rule="evenodd" clip-rule="evenodd" d="M25.0207 0C11.1849 0 0 11.5915 0 25.9318C0 37.3947 7.16655 47.0979 17.1084 50.5321C18.3514 50.7903 18.8067 49.9741 18.8067 49.2876C18.8067 48.6864 18.7658 46.6258 18.7658 44.4787C11.8056 46.0246 10.3562 41.3875 10.3562 41.3875C9.23769 38.3821 7.58037 37.6097 7.58037 37.6097C5.30231 36.0211 7.7463 36.0211 7.7463 36.0211C10.2733 36.1929 11.5992 38.683 11.5992 38.683C13.8358 42.6325 17.4398 41.5166 18.8897 40.8295C19.0966 39.1551 19.7599 37.9959 20.4641 37.3521C14.9128 36.7509 9.07227 34.5185 9.07227 24.5577C9.07227 21.7241 10.0658 19.4058 11.6402 17.6028C11.3918 16.9589 10.5217 14.2965 11.8891 10.7332C11.8891 10.7332 14.0017 10.0461 18.7653 13.395C20.8047 12.8274 22.9079 12.5386 25.0207 12.5362C27.1333 12.5362 29.2869 12.8371 31.2756 13.395C36.0396 10.0461 38.1523 10.7332 38.1523 10.7332C39.5197 14.2965 38.6491 16.9589 38.4007 17.6028C40.0165 19.4058 40.9691 21.7241 40.9691 24.5577C40.9691 34.5185 35.1285 36.7077 29.5358 37.3521C30.4475 38.1677 31.2341 39.713 31.2341 42.1604C31.2341 45.6379 31.1931 48.4288 31.1931 49.2871C31.1931 49.9741 31.649 50.7903 32.8914 50.5326C42.8333 47.0973 49.9999 37.3947 49.9999 25.9318C50.0409 11.5915 38.815 0 25.0207 0Z" fill="white"/>
</svg>
